PathFileType	4	(X/Y/Z)	C:\Users\Basilio\Documents\Thesis Gigler\squatting_fais\c3dfiles\038\SLS_back_pre5\markers_experimental.trc
DataRate	CameraRate	NumFrames	NumMarkers	Units	OrigDataRate	OrigDataStartFrame	OrigNumFrames
200.000000	200.000000	4	63	mm	200.000000	1464	1674
Frame#	Time	FHD			LBHD			RBHD			C7			T10			CLAV			LSHO			LUUPA			LMUPA			LDUPA			LLEP			LMEP			LRAD			LUL			LRFIN			RSHO			RUPA1			RMUPA			RDUPA			RLEP			RMEP			RRAD			RUL			RUFIN			LASI			RASI			USACR			LSACR			RSACR			LTHI1			LTHI2			LTHI3			LTHI4			LLFC			LMFC			LTIB1			LTIB2			LTIB3			LTIB4			LLMAL			LMMAL			LHEE			LMT1			LMT2			LMT5			RTHI			RTHI2			RTHI3			RTHI4			RLFC			RMFC			RTIB1			RTIB2			RTIB3			RTIB4			RLMAL			RMMAL			RHEE			RMT1			RMT2			RMT5			*61			*62			
		X1	Y1	Z1	X2	Y2	Z2	X3	Y3	Z3	X4	Y4	Z4	X5	Y5	Z5	X6	Y6	Z6	X7	Y7	Z7	X8	Y8	Z8	X9	Y9	Z9	X10	Y10	Z10	X11	Y11	Z11	X12	Y12	Z12	X13	Y13	Z13	X14	Y14	Z14	X15	Y15	Z15	X16	Y16	Z16	X17	Y17	Z17	X18	Y18	Z18	X19	Y19	Z19	X20	Y20	Z20	X21	Y21	Z21	X22	Y22	Z22	X23	Y23	Z23	X24	Y24	Z24	X25	Y25	Z25	X26	Y26	Z26	X27	Y27	Z27	X28	Y28	Z28	X29	Y29	Z29	X30	Y30	Z30	X31	Y31	Z31	X32	Y32	Z32	X33	Y33	Z33	X34	Y34	Z34	X35	Y35	Z35	X36	Y36	Z36	X37	Y37	Z37	X38	Y38	Z38	X39	Y39	Z39	X40	Y40	Z40	X41	Y41	Z41	X42	Y42	Z42	X43	Y43	Z43	X44	Y44	Z44	X45	Y45	Z45	X46	Y46	Z46	X47	Y47	Z47	X48	Y48	Z48	X49	Y49	Z49	X50	Y50	Z50	X51	Y51	Z51	X52	Y52	Z52	X53	Y53	Z53	X54	Y54	Z54	X55	Y55	Z55	X56	Y56	Z56	X57	Y57	Z57	X58	Y58	Z58	X59	Y59	Z59	X60	Y60	Z60	X61	Y61	Z61	X62	Y62	Z62	X63	Y63	Z63	

1465	7.32	-228.300033569336	1775.571411132813	-1053.961791992188	-380.4432983398438	1718.577392578125	-1116.145385742188	-372.4835205078126	1702.942260742188	-971.7920532226565	-416.7282714843751	1532.802856445313	-1045.255859375	-395.5668029785157	1253.907836914063	-1027.869873046875	-271.8170471191407	1524.583740234375	-1057.801147460938	-338.7428588867188	1556.02783203125	-1200.4169921875	-180.507568359375	1474.8271484375	-1333.835083007813	-150.046142578125	1508.56640625	-1309.491577148438	-111.301872253418	1476.956909179688	-1343.166137695313	-48.20492172241212	1474.673828125	-1345.791748046875	-43.14361572265626	1400.803588867188	-1318.176025390625	224.1805114746094	1468.672485351563	-1210.566528320313	241.7502441406251	1472.80810546875	-1280.554321289063	298.7828674316407	1498.28466796875	-1188.14892578125	-318.9087829589844	1545.949829101563	-911.4348144531252	-164.9136657714844	1512.882446289063	-787.395446777344	-127.7503509521485	1520.826538085938	-818.1358642578127	-98.13722229003909	1506.532104492188	-767.3696289062501	-25.63236618041993	1500.891479492188	-753.6892700195314	-21.69953536987305	1421.759765625	-767.7149658203126	251.6065368652344	1484.885009765625	-830.885192871094	261.6040039062501	1503.863037109375	-763.7584838867189	330.3487243652344	1520.770629882813	-838.8928833007815	-224.0140686035157	1059.558471679688	-1122.220703125	-238.8657226562501	1093.410522460938	-874.9294433593752	-400.0751342773439	1119.70849609375	-1009.121765136719	-411.876190185547	1088.235229492188	-1033.884521484375	-412.5153198242189	1092.73046875	-977.6194458007815	-256.4831542968751	737.2785644531251	-1149.946533203125	-226.523422241211	658.4453735351564	-1137.487548828125	-180.5866851806641	665.9714355468751	-1115.67919921875	-254.5441894531251	610.7324829101564	-1116.459594726563	-250.8149108886719	549.1300659179689	-1105.025268554688	-244.8148193359376	548.4520874023439	-985.8477172851565	-241.7049865722657	362.3279113769532	-1021.1787109375	-287.6703796386719	321.9782714843751	-1083.836669921875	-251.8468475341797	314.0768737792969	-1052.87158203125	-278.6268310546876	240.2661590576172	-1020.236755371094	-379.5651550292969	119.9840316772461	-1035.515502929688	-342.2660827636719	133.5067291259766	-963.7353515625002	-432.4753417968751	101.5419387817383	-980.6680908203127	-233.5461425781251	45.10280990600587	-974.852478027344	-225.4320068359376	45.19880294799805	-1024.84423828125	-270.4006347656251	36.07621383666993	-1071.449951171875	-239.8415679931641	825.4966430664065	-790.265808105469	-194.0726470947266	777.6121215820315	-778.3328247070315	-161.3169860839844	783.3337402343752	-783.3701171875002	-208.6089324951172	691.8856811523439	-783.9224243164065	-190.4542083740235	596.7946777343751	-793.996520996094	-186.5045013427735	582.1784667968751	-908.111999511719	-317.3973693847657	489.8965148925782	-830.011901855469	-421.4227905273439	542.1597900390626	-814.992614746094	-402.4090881347657	498.1651611328126	-817.5723876953127	-442.3899230957032	470.5169067382814	-851.7115478515627	-574.9107666015626	500.9178466796876	-846.1980590820315	-551.8678588867189	464.973358154297	-919.2906494140627	-617.1299438476564	540.5848388671876	-923.9067993164065	-601.6749267578126	328.6498718261719	-886.220153808594	-604.6755981445314	334.3137512207032	-839.2838134765627	-637.3766479492189	378.5825500488282	-805.5776977539065	nan	nan	nan	nan	nan	nan	
1466	7.325	-228.3134765625001	1775.584716796875	-1053.889770507813	-380.4866333007813	1718.642456054688	-1116.064697265625	-372.5411376953126	1702.985229492188	-971.7117919921877	-416.8403930664064	1532.842895507813	-1045.152465820313	-395.5978393554689	1253.954345703125	-1027.781494140625	-271.8612976074219	1524.595825195313	-1057.727416992188	-338.8412170410157	1556.015258789063	-1200.386474609375	-180.8957824707032	1474.0791015625	-1333.822631835938	-150.3855438232422	1507.52099609375	-1309.677490234375	-111.7718658447266	1475.949951171875	-1343.355834960938	-48.99631881713869	1473.827392578125	-1346.21240234375	-43.59696960449219	1399.533203125	-1318.3330078125	223.9109649658204	1467.032836914063	-1210.276000976563	241.2043914794922	1471.118408203125	-1280.340454101563	297.7823181152344	1497.01513671875	-1187.910766601563	-318.9732055664063	1545.866577148438	-911.2686767578127	-165.2497863769532	1512.345458984375	-786.7798461914065	-127.9186553955078	1520.095703125	-817.4216308593752	-98.24619293212893	1505.676513671875	-766.7346191406251	-26.20835685729981	1499.678955078125	-752.8969116210939	-22.31986618041993	1420.607788085938	-767.0844116210939	250.9463195800782	1482.90380859375	-830.3618164062502	261.0961303710938	1502.213012695313	-763.2850341796876	329.7368774414063	1518.323120117188	-838.2904052734377	-224.1203765869141	1059.589233398438	-1122.155151367188	-238.9046020507813	1093.449829101563	-874.906433105469	-400.2056274414064	1119.804443359375	-1009.060607910156	-411.9777221679689	1088.312377929688	-1033.83642578125	-412.6527709960939	1092.789306640625	-977.5877075195315	-256.7129821777344	737.3697509765626	-1149.877807617188	-226.6422271728516	658.4718017578126	-1137.394409179688	-180.6781311035157	665.9362182617189	-1115.593994140625	-254.6326141357422	610.7451782226564	-1116.366943359375	-250.9731903076172	549.1832275390626	-1104.942749023438	-244.9844207763672	548.4581909179689	-985.839782714844	-241.7879791259766	362.3496704101563	-1021.127197265625	-287.6185607910157	321.9946289062501	-1083.740112304688	-251.8274688720704	314.0819091796876	-1052.8232421875	-278.6351623535157	240.2832489013672	-1020.163635253906	-379.3703918457032	120.2988433837891	-1035.365966796875	-342.2237243652344	133.5160675048828	-963.6636352539065	-432.4758911132814	101.5130233764649	-980.6924438476565	-233.571762084961	45.17046737670899	-974.8643798828127	-225.4360351562501	45.15910339355469	-1024.880004882813	-270.4111022949219	36.10926818847657	-1071.434814453125	-239.8543548583985	825.5259399414065	-790.2756347656252	-194.0532989501954	777.6157836914065	-778.349548339844	-161.2943267822266	783.4572753906252	-783.3950195312502	-208.6071777343751	692.1712036132814	-783.800964355469	-190.3446960449219	596.8212890625001	-794.037292480469	-186.3723297119141	582.2968139648439	-908.2232666015627	-317.2098999023438	489.9062500000001	-830.1131591796877	-421.452362060547	541.8741455078126	-815.2532348632815	-402.2581481933595	498.0777893066407	-817.6062622070315	-442.1947326660157	470.3098144531251	-851.812683105469	-574.7908935546876	500.6596679687501	-846.234313964844	-551.6801147460939	464.8218688964845	-919.3105468750002	-617.4817504882814	540.0214843750001	-924.146179199219	-600.1531372070314	328.2051086425782	-886.0080566406252	-603.3626708984376	334.1390380859376	-838.6966552734377	-636.5235595703126	377.7330932617188	-805.2702636718752	nan	nan	nan	nan	nan	nan	
1467	7.33	-228.5108489990235	1775.757446289063	-1053.919677734375	-380.5699462890626	1718.7431640625	-1115.94287109375	-372.5651550292969	1703.135620117188	-971.6372070312502	-416.9329223632814	1532.928955078125	-1045.00537109375	-395.7310791015626	1254.009155273438	-1027.779296875	-271.9432983398438	1524.655029296875	-1057.643432617188	-338.9150695800782	1556.038330078125	-1200.340698242188	-181.3883209228516	1473.344848632813	-1333.89453125	-150.6805114746094	1506.65185546875	-1309.892700195313	-112.3036346435547	1474.990478515625	-1343.63134765625	-49.46193313598634	1472.517822265625	-1346.490844726563	-44.25869369506837	1398.15380859375	-1318.478637695313	222.8488922119141	1465.578735351563	-1210.109375	240.5790557861329	1469.331665039063	-1280.089599609375	297.3053588867188	1495.269409179688	-1187.568237304688	-319.0043945312501	1545.88720703125	-911.170593261719	-165.7276611328125	1511.767578125	-786.0319824218752	-127.6990127563477	1519.397827148438	-816.7078857421877	-98.70735168457034	1504.702392578125	-766.0213012695314	-26.46216201782227	1498.619140625	-751.9989624023439	-22.95734596252442	1419.413940429688	-766.1266479492189	250.4013061523438	1481.223510742188	-829.823425292969	260.8594055175782	1500.311645507813	-762.7863159179689	329.3144836425782	1517.057495117188	-838.226501464844	-224.2139739990235	1059.643432617188	-1122.085205078125	-238.9899291992188	1093.491577148438	-874.8533325195315	-400.2417602539064	1119.913818359375	-1009.002380371094	-412.2022399902345	1088.428466796875	-1033.849609375	-412.6619262695314	1092.880249023438	-977.5107421875002	-256.8247375488282	737.4098510742189	-1149.822265625	-226.7591705322266	658.4760742187501	-1137.347778320313	-180.7754669189453	666.0167846679689	-1115.550048828125	-254.7834167480469	610.8192138671876	-1116.296630859375	-250.9655914306641	549.2291259765626	-1104.90771484375	-245.0885620117188	548.5052490234376	-985.8194580078127	-241.9459075927735	362.3171386718751	-1021.140563964844	-287.5756225585938	321.9892578125001	-1083.669555664063	-251.8492736816407	314.1800842285157	-1052.775146484375	-278.6620483398438	240.3436889648438	-1020.15673828125	-379.5889587402344	120.0135345458985	-1035.492553710938	-342.2201538085938	133.4790496826172	-963.6500244140627	-432.4783020019532	101.5349426269532	-980.6662597656252	-233.5383453369141	45.11639404296876	-974.799011230469	-225.4175872802735	45.23725891113282	-1024.825805664063	-270.3541259765626	36.07769012451173	-1071.447143554688	-239.8394012451172	825.577575683594	-790.2747192382815	-194.0055084228516	777.7111816406252	-778.388122558594	-161.280746459961	783.487731933594	-783.383728027344	-208.4549102783204	691.9865112304689	-784.077575683594	-190.2151489257813	596.8299560546876	-794.1705322265627	-186.1706695556641	582.4161376953126	-908.2658691406252	-316.9795532226563	489.8300781250001	-830.214538574219	-421.2849731445314	541.7550048828126	-815.2818603515627	-402.1071166992189	497.8810119628907	-817.6946411132815	-441.9795227050782	470.2403259277345	-851.8154907226565	-574.5914306640626	500.2793579101564	-846.2612915039065	-551.3895263671876	464.4925231933595	-919.4036254882815	-617.9061279296876	539.3394165039064	-924.2987060546877	-599.1638183593751	328.1297607421876	-885.3718872070315	-601.9536743164064	333.7888488769532	-838.6063232421877	-635.0982666015626	377.6868896484376	-804.995300292969	nan	nan	nan	nan	nan	nan	
1468	7.335	-228.5048828125001	1775.74658203125	-1053.78662109375	-380.6237487792969	1718.804931640625	-1115.869873046875	-372.5933227539063	1703.206420898438	-971.507751464844	-416.9935302734376	1532.975463867188	-1044.829223632813	-395.8717651367189	1254.025512695313	-1027.701171875	-271.9862060546876	1524.643920898438	-1057.587158203125	-338.9533081054688	1556.030517578125	-1200.30615234375	-181.926498413086	1472.395751953125	-1333.954467773438	-150.8946990966797	1505.936157226563	-1310.306030273438	-112.7206115722657	1473.845825195313	-1343.995849609375	-49.47202301025392	1470.97314453125	-1346.934814453125	-44.91776275634766	1397.194213867188	-1318.738159179688	222.4750671386719	1464.1259765625	-1209.481811523438	239.8967895507813	1467.607788085938	-1279.797485351563	296.4735717773438	1494.02978515625	-1187.513305664063	-319.1186828613282	1545.825317382813	-910.9163208007815	-165.7883605957032	1511.162963867188	-785.4965820312502	-128.3948211669922	1518.4755859375	-816.1370849609377	-99.21561431884768	1503.768310546875	-765.2044067382814	-26.8348617553711	1497.337524414063	-751.1928100585939	-23.60308265686036	1418.352783203125	-765.2692871093751	249.8403930664063	1479.736450195313	-829.4080810546877	260.4102783203126	1498.326904296875	-762.2313842773439	328.7980957031251	1514.490966796875	-837.5257568359377	-224.3618621826172	1059.648193359375	-1122.018798828125	-239.0608520507813	1093.482543945313	-874.7989501953127	-400.3786010742189	1119.949829101563	-1008.991088867188	-412.2185668945314	1088.501220703125	-1033.78271484375	-412.7957153320314	1092.966918945313	-977.4437255859377	-256.9476318359376	737.4503173828126	-1149.758911132813	-226.8480682373047	658.5662231445314	-1137.2412109375	-180.7968292236328	666.0333251953126	-1115.456909179688	-254.8764648437501	610.8595581054689	-1116.201049804688	-251.0524902343751	549.2575073242189	-1104.822143554688	-245.1939544677735	548.5631713867189	-985.6859130859377	-242.0528259277344	362.2992553710938	-1021.070068359375	-287.6654968261719	322.0329895019532	-1083.649047851563	-251.8576354980469	314.2472839355469	-1052.728759765625	-278.6754455566407	240.3544921875001	-1020.082641601563	-379.5057678222657	120.0196380615235	-1035.53271484375	-342.1835327148438	133.4039306640625	-963.6022949218752	-432.485321044922	101.5672760009766	-980.6691894531252	-233.4922943115235	44.99114608764649	-974.8638305664065	-225.4701080322266	45.1707878112793	-1024.869262695313	-270.4107666015626	36.10567474365235	-1071.411987304688	-239.8411407470704	825.7080078125002	-790.2769775390627	-193.9576568603516	777.8338623046877	-778.461608886719	-161.1779479980469	783.6257934570315	-783.3640136718752	-208.362289428711	692.0612792968751	-784.1824340820315	-190.0915679931641	596.8764038085939	-794.2710571289065	-186.0393371582032	582.4794311523439	-908.325622558594	-316.6594543457032	489.7078552246095	-830.1501464843752	-421.1201782226564	541.5939331054689	-815.377624511719	-401.9622802734376	497.8176269531251	-817.6943969726565	-441.8108215332032	470.0920410156251	-851.8356933593752	-574.2728271484376	500.0665283203126	-846.2696533203127	-551.1486816406251	464.0167846679689	-919.4407958984377	-618.3140869140626	538.4221191406251	-924.2383422851565	-598.0725097656251	327.7837524414063	-885.1337890625002	-600.5411376953126	333.4547119140626	-838.2929687500002	-634.0150146484376	376.9043273925782	-804.7016601562502	nan	nan	nan	nan	nan	nan	
